<?xml version="1.0" encoding="utf-8"?>
<!-- Generator: Adobe Illustrator 19.2.1, SVG Export Plug-In . SVG Version: 6.00 Build 0)  -->
<!DOCTYPE svg PUBLIC "-//W3C//DTD SVG 1.1//EN" "http://www.w3.org/Graphics/SVG/1.1/DTD/svg11.dtd">
<svg version="1.1"
	 id="Layer_1" xmlns:cc="http://creativecommons.org/ns#" xmlns:dc="http://purl.org/dc/elements/1.1/" xmlns:inkscape="http://www.inkscape.org/namespaces/inkscape" xmlns:rdf="http://www.w3.org/1999/02/22-rdf-syntax-ns#" xmlns:sodipodi="http://sodipodi.sourceforge.net/DTD/sodipodi-0.dtd" xmlns:svg="http://www.w3.org/2000/svg"
	 xmlns="http://www.w3.org/2000/svg" xmlns:xlink="http://www.w3.org/1999/xlink" x="0px" y="0px" width="100px" height="100px"
	 viewBox="0 0 100 100" style="enable-background:new 0 0 100 100;" xml:space="preserve">
<style type="text/css">
	.st0{fill:#F5C40C;}
	.st1{fill:#FFFFFF;}
</style>
<g>
	<g transform="translate(0,-952.36218)">
		<path class="st0" d="M50,952.4c-27.6,0-50,22.4-50,50c0,27.6,22.4,50,50,50s50-22.4,50-50C100,974.8,77.6,952.4,50,952.4z"/>
	</g>
	<path class="st1" d="M49.7,22.7c-0.7,0.1-1.4,0.6-1.7,1.2l-7.4,13.8l-16.1,3.2c-1.2,0.2-2,1.4-1.8,2.7c0.1,0.5,0.4,1,0.8,1.4
		L35,54.3L31.9,70c-0.3,1.2,0.5,2.4,1.8,2.7c0.5,0.1,1,0,1.5-0.2L50,65.1l14.9,7.4c1.1,0.6,2.5,0.1,3.1-1c0.2-0.5,0.3-1,0.2-1.5
		L65,54.3L76.5,45c1-0.8,1.1-2.2,0.4-3.2c-0.3-0.4-0.8-0.7-1.4-0.8l-16.1-3.2L52,23.9C51.6,23.1,50.7,22.6,49.7,22.7z"/>
</g>
</svg>
