<?xml version="1.0" encoding="utf-8"?>
<!-- Generator: Adobe Illustrator 19.2.1, SVG Export Plug-In . SVG Version: 6.00 Build 0)  -->
<!DOCTYPE svg PUBLIC "-//W3C//DTD SVG 1.1//EN" "http://www.w3.org/Graphics/SVG/1.1/DTD/svg11.dtd">
<svg version="1.1" id="Layer_1" xmlns="http://www.w3.org/2000/svg" xmlns:xlink="http://www.w3.org/1999/xlink" x="0px" y="0px"
	 width="100px" height="100px" viewBox="0 0 100 100" style="enable-background:new 0 0 100 100;" xml:space="preserve">
<style type="text/css">
	.st0{fill:#E7A1F1;}
	.st1{fill:#FFFFFF;}
</style>
<g>
	<path class="st0" d="M100,21.7c0-7.2-1.5-11.7-4.6-14.2c-4.9-3.9-12.6-2.3-22.3-0.1c-6.9,1.5-14.8,3.2-23.1,3.2
		c-8.4,0-16.1-1.7-23.1-3.2C17.2,5.3,9.5,3.6,4.6,7.5C1.5,10,0,14.5,0,21.7C0,35,5.2,47.5,14.6,57c-0.8,3-1.2,6.3-1.2,9.6
		c0,10.6,4.7,28.3,36.7,28.3s36.7-17.7,36.7-28.2c0-3.3-0.5-6.6-1.2-9.6C94.9,47.5,100,35,100,21.7z M74,66.6C74,73.8,71.4,82,50,82
		s-24-8.3-24-15.4c0-0.4,0-0.6,0-1c7.3,4,15.5,6.1,23.9,6.1s16.6-2.1,23.9-6.1C73.9,66,74,66.4,74,66.6z"/>
	<path class="st1" d="M50,91.8c-12.6,0-33.7-3.3-33.7-25.1c0-10.9,5.2-21,14-27.3c0,0.2,0,0.4,0,0.6c0,2.4,0.5,4.9,1.3,7
		c-5.5,5.1-8.6,12.3-8.6,19.7c0,4.6,0,18.4,26.9,18.4s26.9-14,26.9-18.4c0-7.5-3.2-14.6-8.6-19.7c0.8-2.2,1.3-4.5,1.3-7
		c0-0.2,0-0.4,0-0.6c8.9,6.3,14,16.4,14,27.3C83.7,88.6,62.6,91.8,50,91.8z"/>
	<path class="st1" d="M50,56.6c-9.2,0-16.7-7.5-16.7-16.7S40.8,23.3,50,23.3S66.7,30.8,66.7,40S59.2,56.6,50,56.6z"/>
</g>
</svg>
