<?xml version="1.0" encoding="utf-8"?>
<!-- Generator: Adobe Illustrator 19.2.1, SVG Export Plug-In . SVG Version: 6.00 Build 0)  -->
<!DOCTYPE svg PUBLIC "-//W3C//DTD SVG 1.1//EN" "http://www.w3.org/Graphics/SVG/1.1/DTD/svg11.dtd">
<svg version="1.1" id="Layer_1" xmlns="http://www.w3.org/2000/svg" xmlns:xlink="http://www.w3.org/1999/xlink" x="0px" y="0px"
	 width="540px" height="261px" viewBox="0 0 540 261" style="enable-background:new 0 0 540 261;" xml:space="preserve">
<style type="text/css">
	.st0{fill:url(#SVGID_1_);}
	.st1{fill:#FFCB05;}
	.st2{fill:#004A94;}
	.st3{fill:#FFFFFF;}
	.st4{fill:#2D59A9;}
</style>
<g>
	<g>
		
			<linearGradient id="SVGID_1_" gradientUnits="userSpaceOnUse" x1="-401.8441" y1="639.3665" x2="-401.8441" y2="472.502" gradientTransform="matrix(1.1979 0 0 -1.1979 748.1691 773.2518)">
			<stop  offset="0" style="stop-color:#009DC3"/>
			<stop  offset="1" style="stop-color:#BBDDEA"/>
		</linearGradient>
		<path class="st0" d="M19.6,111.8l4.6,7.7l8-4l1.1-0.6L70.2,197l3.5,7.9l8.3-2.7l20-6.6l8.7-2.9l-2.3-8.9l-10.6-40.7
			c3.1-2.3,5.9-4.7,8.5-7.3c-0.6,4.9-0.3,9.8,1,14.5c2.8,9.8,9.2,17.6,18.2,21.8c9.7,4.6,21.5,4.4,32.4-0.3
			c5.5-2.4,10.4-5.8,14.5-9.9l1.5,16.2l34.9-5.5v-31.4l73,35.4v-35c2.9-0.3,5.9-0.8,8.9-1.5c8-2,14.9-4.8,21-8.5l-3.1,18.8l39.3,5.8
			l2.2-14.2l10.3,18.9l6.3-12.2l2.3,19.9l44.6,7.4l-2.4-15c6.1,0.6,12.5-0.2,18.8-2.7c1.5-0.6,2.9-1.3,4.3-2l-1.8,16l29.7,3.9
			l0.2,12.2l30.9,9.4l40.3-122.2l-42-9.8l-4,16.5l-3.7-18.2l-49.3-10.4l0.4,27.5l7.4,1.6l-0.6,5c-0.1,0-0.1-0.1-0.2-0.1
			c-9.2-4.8-20.6-5.2-31.4-1c-3.6,1.4-6.9,3.3-10,5.5l-7.4-47L360,45.5l-0.9,5.4l-34.5,0.4l-4,24.3l-2.9-3.5
			C309.5,62,297.4,56.4,284,56.3l29.3-16.1L292.8,9.8l-36.9,43l6.4,7.7c-5.8,2.4-10.8,5.7-15,9.7l-31.7-27.8l-11.1,21.4l0.4-20.4
			l-49.5,16.4l1.3,26.7l8.4-2.3l1.3,13.5c-9.6-4.2-21.2-4-31.9,0.6c-3.2,1.4-6.1,3.1-8.9,5.2c1.9-8.3,1.4-16.4-1.7-23.6
			c-3.7-8.5-10.2-15.5-18.2-19.9c-5.6-3.7-12.3-5.9-19.2-6.6c-17.1-2.8-37.7,0.5-57.9,9.3c-7.4,3.2-14.4,7-20.7,11L0,78.9l4.8,8
			 M224.9,106.2l9.4-9.2c-0.4,4.2-0.2,8.6,0.7,13L224.9,106.2z M317,99l-6.4-5.7l6.9-7.4l2.1-2.2L317,99z"/>
		<path class="st1" d="M497.9,58.2l-4,16.5l-3.7-18.3l-49.4-10.9l0.4,27.5l7.4,1.7l-0.6,5c-0.1,0-0.1-0.1-0.2-0.1
			c-9.2-4.9-20.7-5.4-31.4-1.3c-3.6,1.4-7,3.2-10,5.4L399,36.6h-32.9l-0.9,5.4h-34.6l-4,24.2l-2.9-3.5c-8.4-10.3-20.5-16-34-16.3
			l29.4-15.8L298.6,0l-37,42.6l6.4,7.8c-5.8,2.4-10.9,5.6-15,9.6l-31.7-28.2l-11.1,21.3l0.4-20.4L161,48.5l1.3,26.7l8.4-2.2
			l1.3,13.5c-9.6-4.3-21.2-4.2-32,0.3c-3.2,1.4-6.2,3.1-8.9,5.1c1.9-8.2,1.4-16.4-1.7-23.6c-3.7-8.5-10.2-15.6-18.2-20.1
			c-5.6-3.7-12.3-6.1-19.3-6.8c-17.2-3-37.8,0.1-58.1,8.7c-7.5,3.2-14.4,6.8-20.7,10.8l-7.9,5L9.9,74l14.9,25.1l4.6,7.7l8.1-3.9
			l1.1-0.5l36.9,82.4l3.5,7.9l8.3-2.6l20-6.4l8.8-2.8l-2.3-8.9l-10.6-40.8c3.1-2.2,5.9-4.7,8.5-7.2c-0.6,4.9-0.3,9.8,1,14.5
			c2.8,9.9,9.3,17.7,18.2,22c9.7,4.7,21.5,4.7,32.5,0c5.5-2.3,10.4-5.7,14.5-9.8l1.5,16.2l35-5.1v-31.4l73.1,36.2v-35
			c3-0.2,5.9-0.7,9-1.4c8.1-1.9,14.9-4.6,21.1-8.3l-3.1,18.8l39.4,6.2l2.2-14.2l10.3,19l6.3-12.1l2.3,19.9l44.7,7.9l-2.4-15
			c6.1,0.7,12.6-0.1,18.8-2.5c1.5-0.6,2.9-1.2,4.3-1.9l-1.8,16l29.8,4.2l0.2,12.2l31,9.8L540,68.4L497.9,58.2z M92.3,103.7
			c-1.4-4.8-4.6-15.1-4.6-15.1c0,0.1-0.6-2.2-1.4-4.8c2.8-0.5,5.6-0.2,7.8,0.8c1.2,0.6,3.4,2,3.9,4.7
			C99.2,95.3,97.1,99.5,92.3,103.7z M230.5,95.6l9.4-9.1c-0.4,4.2-0.2,8.6,0.7,13L230.5,95.6z M273.7,91.9c-2.5-4.5-2-10.3,1.7-14.4
			c3.6-3.9,9-5,13.7-3.2L273.7,91.9z M322.8,89.4l-6.5-5.8l6.9-7.3l2.1-2.2L322.8,89.4z"/>
		<g>
			<path class="st2" d="M497.9,58.2l-4,16.5l-3.7-18.3l-49.4-10.9l0.4,27.5l7.4,1.7l-0.6,5c-0.1,0-0.1-0.1-0.2-0.1
				c-9.2-4.9-20.7-5.4-31.4-1.3c-3.6,1.4-7,3.2-10,5.4L399,36.6h-32.9l-0.9,5.4h-34.6l-4,24.2l-2.9-3.5c-8.4-10.3-20.5-16-34-16.3
				l29.4-15.8L298.6,0l-37,42.6l6.4,7.8c-5.8,2.4-10.9,5.6-15,9.6l-31.7-28.2l-11.1,21.3l0.4-20.4L161,48.5l1.3,26.7l8.4-2.2
				l1.3,13.5c-9.6-4.3-21.2-4.2-32,0.3c-3.2,1.4-6.2,3.1-8.9,5.1c1.9-8.2,1.4-16.4-1.7-23.6c-3.7-8.5-10.2-15.6-18.2-20.1
				c-5.6-3.7-12.3-6.1-19.3-6.8c-17.2-3-37.8,0.1-58.1,8.7c-7.5,3.2-14.4,6.8-20.7,10.8l-7.9,5L9.9,74l14.9,25.1l4.6,7.7l8.1-3.9
				l1.1-0.5l36.9,82.4l3.5,7.9l8.3-2.6l20-6.4l8.8-2.8l-2.3-8.9l-10.6-40.8c3.1-2.2,5.9-4.7,8.5-7.2c-0.6,4.9-0.3,9.8,1,14.5
				c2.8,9.9,9.3,17.7,18.2,22c9.7,4.7,21.5,4.7,32.5,0c5.5-2.3,10.4-5.7,14.5-9.8l1.5,16.2l35-5.1v-31.4l73.1,36.2v-35
				c3-0.2,5.9-0.7,9-1.4c8.1-1.9,14.9-4.6,21.1-8.3l-3.1,18.8l39.4,6.2l2.2-14.2l10.3,19l6.3-12.1l2.3,19.9l44.7,7.9l-2.4-15
				c6.1,0.7,12.6-0.1,18.8-2.5c1.5-0.6,2.9-1.2,4.3-1.9l-1.8,16l29.8,4.2l0.2,12.2l31,9.8L540,68.4L497.9,58.2z M323.2,76.3l2.1-2.2
				l-2.5,15.4l-6.5-5.8L323.2,76.3z M297,13.6l10.8,14.7l-31,15.3l-2.1-3.2L297,13.6z M240.6,99.6l-10.1-3.9l9.4-9.1
				C239.5,90.7,239.7,95.1,240.6,99.6z M92,127l12.3,47.4l-20,6.4l-41-91.7c-2.2,1.2-6.3,3.1-10.1,5l-14.9-25
				C24.2,65.3,30.7,62,37.6,59c19.4-8.2,37.8-10.7,52.6-8.1c5.2,0.6,10.8,2.2,15.6,5.4c6.7,3.7,11.7,9.1,14.7,15.8
				C127.5,88.7,115.6,112.5,92,127z M176.7,138.7c-4.2,5.8-9.9,10.6-16.7,13.5c-17.4,7.4-34.7,0-39.3-16.5c-4.5-16,6-34.9,22.8-42.1
				c10.7-4.5,21.5-3.5,29.2,1.8c4.8,3.2,8.4,8.1,10.1,14.2c0.2,0.7,0.3,1.3,0.5,2c0.5,2.3,0.7,4.7,0.6,7.1
				C183.7,125.7,181.1,132.7,176.7,138.7z M278.3,152.1l-72.6-36.3l0.1,38l-18.8,2.6l-1.3-15.7c5.8-9.9,7.9-21.6,4.9-32.4
				c-1.7-5.9-4.7-11-8.9-15.1l-2.7-32l-8.4,2.2l-0.4-8.1l30.2-9l1.8,31.1l22.2-31.2l21.7,20.7l-30.3,32l28.5,11.3
				c3.2,6,8,11.2,14.1,14.9c5.9,3.6,12.6,5.8,19.8,6.5v20.5H278.3z M294.2,121.1c-2.3,0.6-4.5,0.9-6.7,1.1
				c-16.7,1.6-30.6-6-35.9-18.4c-0.6-1.5-1.1-3-1.5-4.6c-2.5-10.5-0.4-19.8,4.8-27.1c1.5-2.1,3.3-4.1,5.2-5.8
				c4.9-4.3,11.1-7.5,18.1-9.2c15.9-3.8,29.9,1,38.4,11.5l-30.2,32.2c2.1,0.4,5.3-0.2,7.7-0.8c7.2-1.7,11.2-5.5,14.8-9.7l12.1,10.9
				l3.7,3.3c-1.6,1.7-3.3,3.2-5,4.6C312.6,114.8,304.7,118.6,294.2,121.1z M408.4,155.7l-24.7-3.8l-6.6-43.5l-9.3,24l-13.9-30h-0.1
				l-5.5,34.8l-23.2-4l3.3-19.4c0.9-0.8,1.7-1.7,2.6-2.5l7.5-7.7l-7.3-6.5l7.7-46.2h23.4l5.8,32l6.6-37.1h16.7l7,45.2
				c-8.9,10.1-13.1,23.6-10.2,36c2.3,9.6,8.2,17.3,16.6,21.8c0.9,0.5,1.7,0.9,2.6,1.2L408.4,155.7z M433.1,142.3
				c-6,2.3-11.9,2.7-17.2,1.7c-3.7-0.7-7.1-2.2-10-4.3c-4.7-3.3-8.1-8.3-9.6-14.6c-1.8-7.5-0.2-15.5,3.9-22.5c2-3.5,4.6-6.7,7.7-9.4
				c3.4-3.1,7.4-5.6,11.8-7.2c10.2-3.9,20.3-2.5,27.4,2.6c2.6,1.9,4.8,4.2,6.5,7c1.3,2.1,2.3,4.5,2.9,7.1c2.2,9-0.4,18.7-6.1,26.4
				c-2.4,3.3-5.4,6.3-8.8,8.7C439,139.6,436.1,141.2,433.1,142.3z M493.8,178.8l-17.2-5.1l-1.5-63.2l-8.6,48.8l-18.7-3l1.3-14.1
				c12.2-10.3,18.7-26.6,15.2-41.4c-1.6-6.5-4.9-12.2-9.7-16.6l1.6-16.6l-7.1-1.9l0.5-8.8l32.2,6.5l10.8,51.4l11.1-46.1l24.5,5.4
				L493.8,178.8z"/>
			<path class="st2" d="M441.9,97.2c0.2,0.7,0.3,1.5,0.3,2.3c-0.2,4.8-4.7,8.5-10.1,8.3s-9.6-4.3-9.4-9.1c0.2-4.5,4.2-8,9.1-8.3
				c-0.9-0.2-1.9-0.3-2.9-0.4c-9-0.4-16.4,6-16.7,14c-0.3,8.5,6.5,15.4,15.3,15.8c9,0.4,16.4-6,16.7-14.5
				C444.4,102.4,443.5,99.6,441.9,97.2z"/>
			<path class="st2" d="M168.8,106.9c0,4.8-4.4,8.7-9.8,8.7s-9.8-3.9-9.8-8.7c0-4.5,3.9-8.2,8.8-8.6c-1-0.2-1.9-0.3-3-0.3
				c-9,0-16.1,6.7-16.1,14.6c0,8.5,7.1,15.1,16,15.1c9,0,16.1-6.7,16.1-15.1c0-2.9-1-5.7-2.6-8C168.7,105.3,168.8,106.1,168.8,106.9
				z"/>
		</g>
		<path class="st2" d="M274.1,90.7c-2.2-4.1-1.8-9.3,1.5-12.9c3.2-3.5,8.1-4.5,12.2-2.9L274.1,90.7z M275.6,77.8
			c-3.3,3.6-3.8,8.8-1.5,12.9l13.8-15.8C283.7,73.3,278.8,74.3,275.6,77.8z M295.5,72.6c-7.1-6.4-18-5.9-24.4,1.1
			c-6.4,7.1-5.9,18,1.1,24.4c0.6,0.5,1.2,1,1.8,1.4l22.6-25.7C296.3,73.4,295.9,72.9,295.5,72.6z M274.1,90.7
			c-2.2-4.1-1.8-9.3,1.5-12.9c3.2-3.5,8.1-4.5,12.2-2.9L274.1,90.7z"/>
		<path class="st2" d="M104.7,87.9c-1.8-9.7-14.4-15.2-27-8.4l3.2,11.1l5,16.4l2.3,7.5C97.6,108.6,107.1,101.3,104.7,87.9z
			 M92.1,102.7c-1.4-4.5-4.3-14.2-4.3-14.2c0,0.1-0.6-2.1-1.3-4.5c2.7-0.5,5.2-0.2,7.4,0.8c1.2,0.6,3.2,1.9,3.7,4.4
			C98.5,94.8,96.6,98.7,92.1,102.7z"/>
	</g>
	<g>
		<path d="M507.6,181.5h4.2v0.6H510v4.6h-0.7v-4.6h-1.8L507.6,181.5L507.6,181.5z"/>
		<path d="M512.5,186.8v-5.2h1l1.5,4.4l1.5-4.4h1v5.2h-0.7v-3.1c0-0.1,0-0.3,0-0.5s0-0.5,0-0.8l-1.5,4.4h-0.7l-1.5-4.4v0.2
			c0,0.1,0,0.3,0,0.6s0,0.5,0,0.6v3.1h-0.6V186.8z"/>
	</g>
	<g>
		<path d="M507.6,212h4.2v0.6H510v4.6h-0.7v-4.6h-1.8L507.6,212L507.6,212z"/>
		<path d="M512.5,217.2V212h1l1.5,4.4l1.5-4.4h1v5.2h-0.7v-3.1c0-0.1,0-0.3,0-0.5s0-0.5,0-0.8l-1.5,4.4h-0.7l-1.5-4.4v0.2
			c0,0.1,0,0.3,0,0.6s0,0.5,0,0.6v3.1h-0.6V217.2z"/>
	</g>
	<path class="st3" d="M143.9,225.7c0.4-5.6-1.3-10.7-3.3-10.5c-2,0.6-5.8,7.4-6.5,14.1c-0.4,5.5,1,7.1,3.2,6.8
		C139.8,235.5,143.2,231.5,143.9,225.7z"/>
	<path class="st3" d="M195.6,222.6c-1.3,1.8-1.5,2.6-1.6,3.7c-0.1,1,0.5,1.4,1.5,1.3c3.1-0.4,5.1-3,5.8-3.5c1-0.6,1.9-1.2,1.8-1
		c0.2-2.1,0.4-4.9,0.5-7.7C201.5,216.8,197.7,219.8,195.6,222.6z"/>
	<path class="st3" d="M371.1,213c1.3-0.6,5-2.1,6.1-2.8c0.1-2.5-1.1-4.6-3.4-4.9C372.7,205.4,371.4,210.4,371.1,213z"/>
	<path class="st3" d="M454,240.1c-3.1,2.4-7.5,2.7-10.7,2.1c-3.2-0.7-4.9-1.9-4.8-4.3c0.4-4.2,3.3-7.1,7.2-9.4
		c3.1-2.1,6.6-3.9,7.6-4.4c0.6-0.3,1.2-0.5,1.6-0.4c-0.2-2.4-0.9-5-2.9-5.6c-1.9-0.3-4.5,0.7-5.7,1.6c-0.2,0.2-1.1,1.1-1.8,1
		c-1.1-0.3-2.8-1.7-2.7-3.6c0.1-1.1,0.6-1.6,1.2-2.1c2.1-1.1,8.4-2.6,10.9-2.1c2.1,0.5,5.7,1.9,7.5,12.7c0.8,4.4,0.4,10.3,0.3,11.6
		s-0.6,5-1.8,7.4c-0.4,0.7-2.4,0.7-3.1,0.5c-1.1-0.3-3.1-1-3.1-3.1C453.8,241.4,453.9,240.8,454,240.1z M447.2,233.4
		c-1.3,1.4-1.5,2.2-1.6,3.3c-0.1,1,0.5,1.6,1.5,1.9c3,0.5,5-1.6,5.7-1.9c1-0.3,1.9-0.6,1.8-0.5c0.2-2.1,0.4-4.9,0.4-7.6
		C453,229.4,449.3,231.2,447.2,233.4z"/>
	<path class="st3" d="M470.4,199.3c1.5,0.5,3.5,2,3.5,3.7c-0.1,1.8-0.7,5-1.1,9.4c-0.2,3.6,0.7,16,0.6,20c0,5.2,1.2,12.3,1.1,14.3
		c-0.2,2-1.6,2.6-3.7,2.1c-1.9-0.5-4.1-1.6-4.2-3.4c0-2.1-0.4-8.5-0.3-14.7s-1.3-17.3-0.7-25.8C466,199.5,467.7,198.5,470.4,199.3z"
		/>
	<g>
		<g>
			<path class="st4" d="M95.5,239.6c-1.4,1.1-2.7,1.9-3.9,2.7c0.5-2.9,1.4-5.8,2.5-8.5c0,0.2-0.1,0.4-0.1,0.5s0,0.3,0,0.4
				C94,236.4,94.5,238.1,95.5,239.6z M122.1,220.4c-1.5-1.3-3.4-1.9-5.3-1.6c-0.3,0-0.6,0.1-0.9,0.2c-1,0.3-2.9,1.2-8.1,3.8
				l-2.2,1.1c-1.5,0.7-3.6,1.7-4.7,2c-0.1,0-0.1,0-0.2,0.1c-1.8,0.5-3.3,1.7-4.4,3.1c2.6-5.1,5.4-9,6.8-11c0.9-0.1,1.7-0.3,2.1-0.4
				c0.1,0,0.2-0.1,0.3-0.1c3.2-1.1,4.7-4.2,4.9-6.8c0-0.1,0-0.1,0-0.2c0-0.6,0-1.1-0.1-1.8c0-0.4-0.1-0.7-0.1-1.2c0-0.2,0-0.3,0-0.5
				l-0.1-0.4c-0.1-1-0.3-2.2-0.7-3.3c-0.7-1.9-1.9-3.4-3.7-4.2c-1.8-0.9-3.9-0.9-6-0.1c-0.1,0-0.1,0-0.2,0.1c-2.6,1.1-6,4.2-7.8,6.5
				c-5.9,7.9-17.3,26.2-18.7,39.7c0,0.1,0,0.2,0,0.3c-0.4,6.8,2.1,10.3,4.2,12.1c2,1.7,5.7,3.4,11.6,2.1c0.1,0,0.2,0,0.3-0.1
				c5.7-1.6,11.8-5,18.1-10.1c1.3,2.6,4.1,4.9,8.7,4c0.1,0,0.1,0,0.2,0c3-0.8,6.3-3.5,6.7-7.3c0-0.1,0-0.3,0-0.4
				c0.1-1-0.1-1.9-0.2-2.9s-0.3-2.1-0.2-3.1c0.2-2.1,0.6-5.1,1.2-8.4l0.3-1.6c0.3-1.7,0.4-2.3,0.5-3.7c0-0.1,0-0.1,0-0.2
				C124.5,223.9,123.7,221.8,122.1,220.4z M109.3,203.1c0,0.1,0.1,0.2,0.1,0.2v0.1C109.4,203.3,109.4,203.2,109.3,203.1z"/>
			<path class="st4" d="M145.9,211.8c-3-2.7-7-4-10.4-3.4c-0.7-0.1-2-0.3-3.8,0.1c-0.1,0-0.2,0-0.2,0.1c-3.5,0.9-4.9,3.3-5.4,4.3
				c-5.3,5.7-9.4,14.7-10.1,21.8c0,0.1,0,0.2,0,0.2c-0.3,5.7,1.1,10,4.1,12.7c2.9,2.6,6.9,3.4,12,2.5c0.1,0,0.2,0,0.3-0.1
				c8.3-1.9,17.8-9.8,19.1-22.5c0-0.1,0-0.2,0-0.3C151.8,218.9,148.6,214.2,145.9,211.8z"/>
			<path class="st4" d="M166,206.1c-0.6-0.5-1.2-0.9-1.8-1.2c0-0.4,0-0.9,0-1.3c0-1.3,0-2.7,0.1-3.2c0.1-2.8-0.9-5.3-2.8-6.9
				c-1.9-1.7-4.5-2.3-7.3-1.7c-0.1,0-0.2,0-0.3,0.1c-4.3,1.1-7.3,4.8-7.8,9.5c-0.2,2.2-0.1,4.1,0,5.9c0,0.7,0.1,1.4,0.1,2
				c-2.7,1.4-4.5,4.1-4.8,7.6c0,0.1,0,0.2,0,0.3c-0.1,2.2,0.8,4.3,2.4,5.7c0.7,0.6,1.4,1,2.2,1.3c-0.1,1.9-0.1,3.8-0.2,4.9
				c-0.2,2.7-0.4,9-0.4,10.5c0,0.2,0,0.4,0.1,0.7c0.3,1.9,1.2,3.5,2.8,4.6c1.3,1,3.7,2,7.5,1.5c0.1,0,0.2,0,0.3,0
				c3.9-0.8,7.2-4.1,7.7-7.8c0-0.1,0-0.2,0-0.3c0.1-1.4,0.2-8.8,0.3-10.7c0-0.1,0-0.2,0-0.3c0-1.1,0-4.3,0.1-6.9h0.1
				c2.6-1.4,4.4-4.3,4.6-7.5c0-0.1,0-0.1,0-0.2C168.7,209.9,167.7,207.6,166,206.1z"/>
			<path class="st4" d="M184,203.1c-0.6-0.5-1.2-0.9-1.8-1.2c0-0.5,0-1.1,0-1.6c0-1.5,0-2.9,0.1-3.5c0.1-2.9-0.9-5.4-2.8-7.1
				c-1.9-1.7-4.4-2.3-7.1-1.9c-0.1,0-0.2,0-0.3,0.1c-4.3,1-7.4,4.8-7.9,9.7c-0.2,2.2-0.1,4.3,0,6.2c0,0.7,0.1,1.5,0.1,2.2
				c-2.7,1.4-4.5,4.1-4.9,7.7c0,0.1,0,0.2,0,0.3c-0.1,2.2,0.8,4.3,2.4,5.8c0.7,0.6,1.4,1.1,2.2,1.4c-0.1,2-0.1,4-0.2,5.1
				c-0.2,2.7-0.4,9-0.4,10.5c0,0.2,0,0.4,0.1,0.6c0.5,3.6,3.8,7,10.1,6.2c0.1,0,0.2,0,0.3,0c4-0.7,7.4-4,7.8-7.7c0-0.1,0-0.2,0-0.3
				c0.1-1.3,0.2-8.8,0.3-10.7c0-0.1,0-0.2,0-0.3c0-1.1,0-4.4,0.1-7.1c0,0,0,0,0.1,0c2.7-1.4,4.4-4.4,4.6-7.6c0-0.1,0-0.1,0-0.2
				C186.7,207.1,185.7,204.7,184,203.1z"/>
			<path class="st4" d="M208.7,212.6c-2.3-14.1-8.8-16.3-13.7-15.7c-0.1,0-0.2,0-0.3,0.1c-4.2,0.8-11.6,6-13.7,7.9
				c-0.1,0.1-0.2,0.2-0.2,0.2c-1.6,1.7-2.6,3.7-2.8,6c0,0.1,0,0.2,0,0.3c-0.1,2.5,0.8,4.7,2.6,6.4c0.6,0.5,1.2,1,1.9,1.3
				c-3.3,3.3-7,7.9-7.5,13.5c0,0.1,0,0.3,0,0.4c0,2.4,0.9,4.5,2.5,6c2.6,2.4,6.2,2.3,8.6,2h0.1c1.2-0.2,4.4-0.7,7.8-2.4
				c1.5,0.8,3.3,1.1,5.5,0.9c0.1,0,0.1,0,0.2,0c1.3-0.2,5.6-1,7.4-4.4c0-0.1,0.1-0.2,0.1-0.3c1.6-3.7,2.1-8.6,2.1-9.1
				C209.2,224.4,209.6,217.8,208.7,212.6z M190.9,226.3L190.9,226.3L190.9,226.3L190.9,226.3z M191,227.1v0.1l0,0
				C191,227.2,191,227.1,191,227.1z"/>
			<path class="st4" d="M248.3,217.2c-1.6-1.6-3.9-2.5-6.5-2.4c-0.1,0-0.3,0-0.4,0c-2.1,0.2-3.8,1.3-5.1,2.4
				c1.1-2.4,2.4-4.3,3.5-4.7c2.6-0.9,5.8-3.2,6.4-9.5c0-0.1,0-0.1,0-0.2c0.2-3-0.6-5.4-2.3-7.1c-1.1-1.1-3.1-2.4-6.3-2.2
				c-0.3,0-0.6,0.1-0.9,0.1c-5.2,1.2-18.5,14.9-20.2,29.9c0,0.1,0,0.2,0,0.3c-0.2,3.8,0.8,6.8,2.9,9c2.4,2.4,5.8,3.5,10.5,3.3
				c0.1,0,0.2,0,0.4,0c4.9-0.5,18.7-4.5,20.2-12.9c0-0.3,0.1-0.5,0.1-0.8C250.5,220.5,249.7,218.6,248.3,217.2z"/>
			<path class="st4" d="M274.3,208.2c-1.8-11.6-6.2-17.4-13.1-17.2c-0.1,0-0.3,0-0.4,0c-4.4,0.4-12,5.4-14.1,7.3
				c-0.1,0.1-0.2,0.2-0.3,0.3c-1.6,1.7-2.6,3.7-2.8,6.1c0,0.1,0,0.2,0,0.3c-0.1,2.5,0.8,4.8,2.4,6.5c0.7,0.7,1.5,1.3,2.3,1.7
				c-3.4,3.1-7.3,7.7-7.8,13.6c0,0.1,0,0.3,0,0.4c0,3,1.2,4.9,2.3,5.9c2.5,2.4,5.9,2.6,8.3,2.5h0.1c1.2-0.1,4.4-0.4,7.8-1.8
				c1.4,0.9,3.3,1.4,5.4,1.3c0.1,0,0.1,0,0.2,0c1.4-0.1,5.9-0.5,7.8-4.1c0-0.1,0.1-0.2,0.1-0.3c1.6-3.6,2.1-8.2,2.1-9.1
				C274.8,220.3,275.2,213.6,274.3,208.2z M262,216.2c-0.1,0-0.2,0-0.3,0l0,0C261.9,216.1,261.9,216.2,262,216.2z M256.5,221.4v0.1
				V221.4z M256.6,222.4L256.6,222.4L256.6,222.4z"/>
			<path class="st4" d="M288.7,193.4c0-1,0.1-2,0.1-3c0-1.7,0.1-3.4,0.1-4.1c0.1-3-0.8-5.7-2.6-7.6c-1.6-1.7-3.8-2.7-6.2-2.7
				c-0.1,0-0.3,0-0.4,0c-4.8,0.3-8.3,4.3-8.9,10c-0.2,2.5-0.1,4.9-0.1,7.1c0,0.9,0,1.8,0,2.7c-2.3,1.1-4.5,3.5-4.9,7.9
				c0,0.1,0,0.2,0,0.3c-0.1,2.2,0.7,4.3,2.2,5.9c0.7,0.7,1.5,1.3,2.4,1.7c-0.1,2.4-0.2,5.1-0.3,6.4c-0.2,2.9-0.4,9.1-0.4,10.6
				c0,0.2,0,0.4,0.1,0.6c0.4,3.1,3.1,6.7,9.3,6.7c0.1,0,0.2,0,0.3,0c4.3-0.2,8-3.4,8.5-7.3c0-0.1,0-0.2,0-0.3
				c0.1-1.3,0.3-9,0.3-10.9c0-0.1,0-0.2,0-0.3c0-1.2,0-4.7,0.1-7.5c2.7-1.3,4.5-4.2,4.7-7.6c0-0.1,0-0.1,0-0.2
				C293.2,197.9,291.4,194.8,288.7,193.4z"/>
			<path class="st4" d="M306.2,213.8c-0.2,0-0.3,0-0.5,0c-2.6,0.1-4.6,1.4-6,2.6c1.1-2.7,2.6-5,3.7-5.3h-0.1
				c2.3-0.6,6.2-2.6,6.8-9.5c0-0.1,0-0.1,0-0.2c0.2-2.9-0.6-5.3-2.2-7c-1-1.1-2.9-2.5-5.9-2.6c-0.3,0-0.6,0-1,0
				c-6,0.8-19,14.5-20.6,29.1c0,0.1,0,0.2,0,0.3c-0.1,1.4-0.3,5.6,2.8,9c2.2,2.5,5.7,3.8,10.2,4c0.1,0,0.3,0,0.4,0
				c5-0.1,19-3.2,20.5-11.8c0-0.3,0.1-0.5,0.1-0.8C314.5,217.4,311,214,306.2,213.8z"/>
			<path class="st4" d="M329.3,192.4c-0.2,0-0.4,0-0.5,0c-2.1-0.1-4.1,0.4-5.9,1.1c0-0.9,0.1-1.9,0.1-2.7c0.3-4.5,0.7-7.5,1-10
				c0.2-1.4,0.3-2.6,0.4-3.7V177c0.3-6-2.9-10.6-7.9-11.1c-0.1,0-0.3,0-0.4,0c-10.2-0.4-11.1,11-11.5,15.3
				c-0.5,7.1-0.3,16.2-0.1,23.6c0.1,3.5,0.2,6.5,0.1,8.6c0,0.1,0,0.1,0,0.2c0,0.1,0.6,13.7,1.4,16.9c0.1,0.4,0.2,0.7,0.4,1
				c1.9,3.9,5.2,4.3,8.4,4.4c0.1,0,0.3,0,0.4,0c2.7-0.1,5-1.3,6.4-3.2c1.3,1.5,3.2,2.6,5.9,3c0.2,0,0.4,0,0.5,0
				c5.6,0.2,9.5-3,10-8.1c0.1-1,0.4-2.9,0.7-4.8c0.4-2.3,0.7-4.6,0.8-5.9C340.9,197.8,334.7,193.1,329.3,192.4z"/>
			<path class="st4" d="M361.4,174.2c-0.3-0.1-0.6-0.1-0.9-0.1c-5-0.2-7,4.5-8.7,8.4c-0.4,1-0.9,2.1-1.4,3c-0.1,0.2-0.3,0.5-0.5,0.9
				c-1.4,2.4-2.6,4.6-2.9,7c0,0.1,0,0.3,0,0.4c-0.2,4.5,3,8.3,7.6,8.9c0.2,0,0.4,0,0.6,0c4.7,0.1,9.2-5.3,10.4-7.2
				c0.1-0.1,0.2-0.3,0.2-0.4c1.5-2.9,3.3-7.4,3.6-9.6c0-0.2,0-0.4,0-0.5C369.7,181.3,366.8,175.3,361.4,174.2z"/>
			<path class="st4" d="M377.4,215.3c0.6-1.7,0.8-3.3,0.8-4.4v-0.2c0-0.1,0-0.3,0-0.4c0-5.7-6-14.5-16-16c-0.3,0-0.7-0.1-1-0.1
				c-6.8,0.2-10.7,11.5-11.7,19.5c-1.6,1.2-2.7,3.1-3,6.1c0,0.1,0,0.2,0,0.2c-0.1,2.1,0.8,4.5,2.5,6.1c0.8,5.8,4.1,11.2,10.3,12.1
				c0.3,0,0.5,0.1,0.8,0.1c2.3,0,5-1.1,10.9-4.6l0.4-0.2c3.7-2.1,9.3-5.4,10-10.4c0-0.2,0-0.3,0.1-0.5
				C381.7,219.3,380.1,216.6,377.4,215.3z M353.2,216.8c-0.1,0-0.2,0-0.3,0.1C353,216.8,353.1,216.8,353.2,216.8z"/>
			<path class="st4" d="M420,217.5c-0.1-6.2-2.4-13.9-9-15.6c-0.2,0-0.3-0.1-0.5-0.1c-3.1-0.5-6.4,0-9.3,1.3c-1.6-1.5-3.6-2.6-5.9-3
				c-0.1,0-0.2,0-0.4-0.1c-2.7-0.3-5.2,0.4-7.5,1.8c-1.2-1-2.9-1.8-5.1-2.1c-0.1,0-0.3,0-0.4,0c-4.1-0.3-9.1,3.3-9.8,8.6
				c0,0.1,0,0.2,0,0.3c-0.1,1.8,0,3.7,0.2,6c0.2,2.5,0.4,5.3,0.4,8.8c0,1.6,0.2,8.9,0.9,11.8c0.1,0.3,0.2,0.6,0.3,0.9
				c1.2,2.7,4,4.6,7.8,5.1c0.1,0,0.2,0,0.2,0c2.3,0.2,4.9-0.4,6.8-1.7c1.2,1.3,3.1,2.4,6.1,2.8c0.1,0,0.2,0,0.3,0
				c2.9,0.3,5.3-0.3,7.2-1.9c0.1,0,0.1-0.1,0.2-0.2c1.3,1.7,3.4,2.9,6.2,3.4c0.1,0,0.2,0,0.2,0c3,0.4,5.5-0.2,7.5-1.7
				c1.3-1,2.8-2.9,3.1-6c0-0.1,0-0.1,0-0.2c0.1-1,0.1-2.3,0-3.7c0-1.3,0-2.8,0-4.2C419.9,225,420,220.2,420,217.5z"/>
			<path class="st4" d="M455,225.3c-1.7-9.9-5.4-15.3-11.7-16.7c-0.1,0-0.2,0-0.3-0.1c-4-0.7-11.4,1.2-14.3,2.8
				c-0.1,0.1-0.3,0.2-0.4,0.2c-2.2,1.4-3.4,3.6-3.7,6.2c0,0.1,0,0.2,0,0.3c-0.1,3.5,1.9,6.5,4.4,8.1c-2.8,2.1-6.8,6-7.4,12.1
				c0,0.1,0,0.3,0,0.4c0,2.9,1.1,8,9.2,9.7c0,0,0.1,0,0.2,0c2.7,0.5,5.3,0.4,7.8-0.1c1.3,1.3,3,2.3,5.1,2.7c0.1,0,0.1,0,0.2,0
				c3,0.6,7.2,0,9-3.4c0.1-0.1,0.1-0.2,0.2-0.3c1.6-3.6,2.1-8.6,2.1-9.1C455.6,236.4,456,230.2,455,225.3z M441.8,231.2
				c0.5-0.1,1-0.2,1.6-0.1l0,0C442.8,231.1,442.3,231.2,441.8,231.2z M437.4,236.6v0.1C437.4,236.6,437.4,236.6,437.4,236.6z"/>
			<path class="st4" d="M467.8,241.5c-0.3-2.7-0.8-6.1-0.8-8.8c0-1.8-0.2-5.1-0.4-8.9c-0.2-3.8-0.5-8.6-0.4-10.3
				c0.2-2.2,0.4-4.1,0.6-5.7c0.2-1.5,0.3-2.6,0.4-3.6c0-0.1,0-0.2,0-0.4c-0.1-4.4-3.7-7.6-7.2-8.8c-0.1,0-0.2,0-0.2-0.1
				c-3.6-1-6.1-0.1-7.5,0.9c-3.4,2.3-4.1,6.5-4.4,9.4v0.1c-0.3,5.5,0.1,11.8,0.5,17.4c0.2,3.2,0.4,6.1,0.4,8.3c0,4,0.2,8.1,0.3,11
				c0.1,1.5,0.1,2.8,0.1,3.4c0,0.1,0,0.2,0,0.3c0.1,1.9,1.1,6.6,8.4,8.4c0.1,0,0.1,0,0.2,0c3.5,0.8,5.8-0.2,7.2-1.2
				c1.8-1.3,2.9-3.4,3.2-5.8c0-0.1,0-0.2,0-0.4C468.3,245.8,468.1,244.3,467.8,241.5z"/>
			<path class="st4" d="M480.3,244.5c-0.3-2.7-0.7-6.1-0.7-8.7c0-1.9-0.2-5.3-0.4-9c-0.2-3.6-0.5-8.2-0.4-9.8
				c0.2-2.1,0.4-3.9,0.6-5.4c0.2-1.4,0.3-2.5,0.4-3.5c0-0.1,0-0.2,0-0.4c-0.1-4.2-3.7-7.4-7.2-8.6c-0.1,0-0.1,0-0.2-0.1
				c-3.6-1.1-6.2-0.2-7.7,0.8c-3.3,2.2-4,6.2-4.3,9v0.1c-0.3,5.2,0.1,11.2,0.5,16.6c0.2,3.2,0.5,6.2,0.5,8.3c0,4,0.2,8.1,0.3,11.1
				c0.1,1.5,0.1,2.8,0.1,3.5c0,0.1,0,0.2,0,0.3c0.1,1.9,1.1,6.6,8.3,8.5c0.1,0,0.1,0,0.2,0c3.5,0.8,5.9-0.1,7.2-1.1
				c1.8-1.3,3-3.4,3.3-5.8c0-0.1,0-0.2,0-0.4C480.8,248.9,480.6,247.3,480.3,244.5z"/>
		</g>
		<path class="st3" d="M118.1,230.5c-0.6,3.1-1.1,6.4-1.3,9c-0.2,2.6,0.5,4.8,0.4,6.1c-0.2,1.3-1.6,2.3-2.5,2.5
			c-1,0.2-2.1,0.3-2.6-1.3c-0.3-0.7-0.3-2.3-0.2-4.3c0.2-2.3,0.4-4,0.7-5.4c-9,9.3-17.6,15.1-25,17.2c-6.6,1.6-9.3-2.1-8.9-8.4
			c1.2-11,10.6-27.5,17.6-36.9c1.6-2.1,4.2-4.2,5.5-4.8c1-0.4,2-0.3,2.4,0.9c0.3,0.7,0.4,1.8,0.5,2.7c0.1,1.1,0.2,2,0.1,2.4
			c-0.1,0.6-0.4,1.8-1.1,2c-0.3,0.1-0.7,0.2-1.2,0.2c-0.4,0-0.9-0.1-1.2,0c-0.3,0.1-1.2,0.4-2.3,1.8c-4.8,6.2-12.1,17.9-13.3,30.3
			c-0.2,4.2,1.4,5.3,4.2,4.7c4.3-1.3,13.9-8.1,20.4-15.7c0.4-0.4,0.7-0.8,1.1-1.3c-0.9,0.2-1.6,0.8-4,2.1s-3.4,2.3-5.1,2.7
			c-1.7,0.3-2.6-1.1-2.6-2.3c0.1-1.2,1.3-3.2,2.6-3.6c1.4-0.3,3.2-1.1,5.8-2.4c3.7-1.8,8.6-4.2,9.6-4.6c0.5-0.1,1.2,0.5,1.2,1.5
			C118.7,227.3,118.7,227.4,118.1,230.5z"/>
		<path class="st3" d="M130.2,216.3c0.8-0.8,0.7-2,2.5-2.5c1.7-0.3,2,0.3,3.6,0c3.3-0.5,10,2.5,9.6,13.1
			c-1.1,10.5-9.1,16.3-14.8,17.6c-5.8,1-10-0.6-9.6-9.4C122,229.1,125.7,221.2,130.2,216.3z M138.5,229.6c0.3-5.5-1.4-10.4-3.3-10.3
			c-2,0.6-5.6,7.3-6.2,13.9c-0.3,5.4,1.1,7,3.2,6.7C134.6,239.3,137.9,235.2,138.5,229.6z"/>
		<path class="st3" d="M148.8,219.2c-1.2,0.2-1.9-0.8-1.9-1.8c0.1-1.5,0.8-3,2.3-3.4c0.9-0.2,1.7-0.7,2.5-0.8
			c0.3-4.5-0.3-7.8-0.1-11.3c0.2-1.9,1.4-4.1,3.6-4.7c2.5-0.5,3.5,1.1,3.4,2.8s-0.1,7.4-0.3,10.9c0.9-0.3,1.3-0.9,2.4-1.1
			c1.4-0.2,2.3,0.9,2.3,2.6c-0.1,1.4-0.9,2.5-1.6,2.8c-1.1,0.6-2.3,0.9-2.9,1.2c-0.1,1.4-0.3,8.9-0.2,11c0,2.2-0.2,9.3-0.3,10.5
			c-0.1,1.1-1.5,2.6-3.2,3c-2.2,0.3-3.7-0.1-3.9-1.3c0-1.2,0.2-7.4,0.4-10s0.3-9.5,0.4-11.1C150.8,218.7,149.8,219,148.8,219.2z"/>
		<path class="st3" d="M166.7,216.2c-1.2,0.1-1.9-0.9-1.9-1.9c0.1-1.5,0.8-3.1,2.3-3.5c0.9-0.2,1.7-0.7,2.5-0.8
			c0.3-4.7-0.3-8.1,0-11.9c0.2-2,1.4-4.3,3.6-4.8c2.5-0.4,3.5,1.3,3.4,3.1s-0.1,7.7-0.3,11.4c0.9-0.3,1.3-0.9,2.4-1.1
			c1.4-0.2,2.3,1,2.3,2.8c-0.1,1.5-0.9,2.5-1.6,2.9c-1,0.5-2.3,0.9-2.9,1.1c-0.1,1.4-0.3,9.1-0.3,11.2c0,2.2-0.2,9.3-0.3,10.5
			c-0.1,1.1-1.4,2.5-3.2,2.9c-2.2,0.3-3.7-0.2-3.9-1.4c0-1.2,0.2-7.3,0.4-10c0.2-2.6,0.4-9.7,0.5-11.3
			C168.8,215.7,167.8,216,166.7,216.2z"/>
		<path class="st3" d="M196,230.2c-3.1,3.1-7.5,4.8-10.7,5.2s-4.9-0.2-4.9-2.4c0.3-4,3.2-7.6,7.1-11.2c3.1-3.1,6.6-6.1,7.6-7
			c0.6-0.5,1.2-0.9,1.6-1c-0.2-2.4-0.9-5.1-2.9-4.9c-1.9,0.3-4.5,2.4-5.7,3.8c-0.2,0.2-1.1,1.5-1.8,1.7c-1.1,0.1-2.8-0.8-2.7-2.8
			c0.1-1.1,0.6-1.9,1.2-2.6c2.1-2,8.5-6,11-6.5c2.1-0.3,5.7,0.2,7.5,11.1c0.8,4.4,0.5,10.4,0.4,11.6c-0.1,1.3-0.6,4.8-1.7,7.3
			c-0.4,0.8-2.4,1.3-3.1,1.4c-1.1,0.1-3.2,0.1-3.1-1.8C195.8,231.5,195.9,230.9,196,230.2z M189.1,226c-1.3,1.7-1.5,2.5-1.6,3.6
			c0,0.9,0.5,1.4,1.5,1.3c3-0.5,5-3,5.7-3.5c1-0.6,1.9-1.2,1.8-1c0.2-2.1,0.4-4.8,0.4-7.5C194.9,220.3,191.2,223.3,189.1,226z"/>
		<path class="st3" d="M228.9,222.6c-0.2,2.5,0.2,3.7,2.5,3.6c2.4-0.2,4.5-1.7,5.6-2.3c1.1-0.7,3-3.3,4.9-3.5c1.9-0.1,2.9,0.9,2.8,2
			c-0.7,3.9-10.3,7.7-15.3,8.2c-6.9,0.3-7.8-3-7.6-6.4c1.4-13,13.4-24.5,15.9-25.1c1.7-0.1,2.9,0.7,2.7,3.4
			c-0.2,2.1-0.7,4.1-2.6,4.7C232.6,209.2,229.4,217.9,228.9,222.6z"/>
		<path class="st3" d="M261.6,225.6c-3,2.9-7.4,4.2-10.7,4.3c-3.2,0.1-4.9-0.6-4.9-2.8c0.3-3.9,3.2-7.5,7.1-10.8
			c3.1-2.9,6.6-5.8,7.5-6.7c0.6-0.5,1.2-0.8,1.6-0.9c-0.2-2.6-0.8-5.4-2.9-5.5c-1.9,0.1-4.5,2.1-5.7,3.5c-0.2,0.2-1.1,1.5-1.8,1.6
			c-1.1,0-2.8-1.1-2.7-3.3c0.1-1.2,0.6-2,1.2-2.7c2.1-1.9,8.5-5.7,10.9-5.9c2.1-0.1,5.7,1,7.4,12.6c0.8,4.7,0.4,10.8,0.3,12
			c-0.1,1.3-0.6,4.9-1.6,7.2c-0.4,0.7-2.3,1.1-3.1,1.1c-1.1,0-3.2-0.2-3.1-2.1C261.4,226.8,261.5,226.3,261.6,225.6z M254.8,220.8
			c-1.3,1.7-1.5,2.5-1.6,3.5c0,0.9,0.5,1.4,1.5,1.4c3-0.2,5-2.6,5.6-3.1c1-0.5,1.9-1,1.8-0.9c0.2-2.1,0.4-4.9,0.4-7.7
			C260.5,215.4,256.8,218.2,254.8,220.8z"/>
		<path class="st3" d="M273.4,206.6c-1.2,0-1.9-1.3-1.8-2.4c0.1-1.6,0.8-3.4,2.3-3.5c0.9,0,1.7-0.5,2.4-0.5
			c0.3-5.2-0.2-9.4,0.1-13.7c0.2-2.4,1.4-4.8,3.6-4.9c2.5,0.1,3.4,2.3,3.3,4.4c-0.1,2.1-0.2,8.9-0.5,13c0.9-0.2,1.3-0.8,2.4-0.8
			c1.4,0.1,2.2,1.5,2.2,3.5c-0.1,1.6-0.9,2.6-1.6,2.9c-1,0.4-2.2,0.6-2.9,0.8c-0.1,1.5-0.4,9.7-0.3,11.9c0,2.3-0.2,9.5-0.3,10.6
			c-0.1,1.1-1.4,2.3-3.2,2.4c-2.1,0-3.7-0.7-3.8-1.9c0-1.2,0.2-7.3,0.4-10.1c0.2-2.7,0.4-10.3,0.5-12.1
			C275.4,206.4,274.4,206.5,273.4,206.6z"/>
		<path class="st3" d="M326.9,215.3c0.3-5.9-0.3-10.6-1.8-10.9c-2.8,0.1-7.4,6.7-7.9,11.1c-0.2,2.7-0.3,6.1-0.1,8
			c0.2,1.6,0.6,3.5,0.5,4.8c-0.1,1.4-1.2,1.9-2.5,2c-3-0.1-3.2-0.5-3.6-1.3c-0.5-1.9-1.1-12.3-1.2-15.6c0.1-6.7-0.7-21.7-0.1-31.7
			c0.7-7.7,2.2-10.3,5.7-10.2c2.1,0.2,3.1,2.5,2.9,5.2s-0.8,6.5-1.4,13.8c-0.3,5-0.1,11.5-0.3,16.4c1.1-3.4,5.6-8.9,11.5-8.8
			c4,0.5,6.2,6.8,5.4,18.3c-0.2,2.2-1.2,8.1-1.5,10.7c-0.2,1.7-1.1,3.2-4.3,3.1c-2.1-0.3-3-1.3-3-2.7
			C325.5,225.1,326.4,221.1,326.9,215.3z"/>
		<path class="st3" d="M355.6,188.1c1.9-4,3.2-8.4,4.8-8.4c2.2,0.4,3.7,3.6,3.6,5.2c-0.1,1-1.4,4.5-3,7.6c-1.5,2.4-4.5,4.6-5.6,4.6
			c-1.5-0.2-2.8-1.3-2.8-3.1C352.9,192.2,354.8,189.4,355.6,188.1z"/>
		<path class="st3" d="M360.6,221.6c-0.2,3.4,1.2,5.3,2.1,5.5c0.9,0.1,2.2-0.6,4.1-2.1c1.1-1,2.7-2.6,4.5-3.9
			c1.1-0.8,1.8-1.2,2.6-1.1c1.6,0.2,2.2,1,2.1,2.3c-0.4,2.4-4.7,4.9-7.3,6.4c-1.4,0.8-6.8,4.1-8.4,4.1c-4.4-0.6-6-6.1-5.7-10.5
			c0,0,0,0,0-0.1c-0.3,0.1-0.6,0.1-1.2,0.1c-0.6-0.1-1.1-1.2-1.1-2c0.2-1.9,0.7-2.3,2.7-3.1c0-0.5,0.1-1,0.1-1.5
			c0.8-8.9,4.6-15.8,6.5-15.9c7.1,1.1,11.3,7.4,11.2,10.4c-0.2,2.1-0.2,4.1-2.8,5.7c-2,1.2-8.1,3.9-9.3,4.7
			C360.7,220.9,360.6,221.3,360.6,221.6z M361,214.9c1.3-0.6,4.9-2.1,6-2.8c0.1-2.4-1.2-4.5-3.3-4.8
			C362.6,207.4,361.3,212.3,361,214.9z"/>
		<path class="st3" d="M392.4,233.9c0.1-0.9,1.3-12.7,1.4-15.9c0.1-2.9-0.5-6.4-2.2-6.8c-1.8-0.1-5.9,4-6.5,8.8
			c-0.4,6.4,1.1,11,1,14c-0.2,1.3-2.7,1.7-3.6,1.6c-1.7-0.2-3.1-0.9-3.4-1.8c-0.5-2-0.7-8.3-0.7-10.5c0-7-0.8-11.5-0.6-14.5
			c0.3-2.4,2.8-3.7,3.8-3.7c2.4,0.4,3.7,1.1,3.8,6.6c2.1-3.4,5.5-6.6,8.9-6.2c2.4,0.4,4.5,2.3,5.2,5.5c2.4-2.9,6.8-4.2,10.2-3.7
			c3.3,0.8,4.7,6.2,4.7,10.1c0,2.7-0.1,7.4-0.2,10.2c-0.1,2.9,0.1,6-0.1,7.7c-0.2,1.8-1.2,3.2-4.3,2.8c-3.1-0.6-3.4-2-3.3-3.7
			c0.3-3.7,1.1-10.8,1.3-14.2c0.2-3,0.4-7.1-1.6-7.6c-2.1-0.3-3.3,0.6-5.9,3c0,0.3-0.1,7.9-0.2,10.6c-0.1,2.8-0.1,6-0.3,7.7
			c-0.2,1.7-1,3.1-4,2.8C393,236.4,392.3,235.6,392.4,233.9z"/>
		<path class="st3" d="M442.5,240.6c-3,2.4-7.3,2.8-10.5,2.2s-4.8-1.8-4.8-4.1c0.4-4.1,3.2-6.9,6.9-9.3c3.1-2.1,6.4-3.9,7.4-4.4
			c0.6-0.3,1.1-0.5,1.6-0.4c-0.2-2.3-0.9-4.9-2.9-5.4c-1.9-0.3-4.4,0.7-5.6,1.7c-0.2,0.2-1.1,1.1-1.8,1c-1.1-0.3-2.7-1.7-2.7-3.5
			c0.1-1,0.6-1.6,1.2-2c2.1-1.1,8.2-2.6,10.6-2.2c2,0.5,5.6,1.8,7.5,12.3c0.8,4.3,0.5,10.1,0.4,11.4c-0.1,1.3-0.6,4.9-1.7,7.3
			c-0.4,0.7-2.3,0.7-3,0.5c-1.1-0.3-3.1-1-3-3C442.3,241.9,442.4,241.3,442.5,240.6z M435.8,234c-1.2,1.4-1.5,2.1-1.5,3.2
			c0,1,0.5,1.6,1.5,1.8c3,0.5,4.9-1.6,5.5-1.9c1-0.3,1.9-0.6,1.7-0.5c0.2-2.1,0.4-4.8,0.4-7.4C441.4,230.1,437.8,231.9,435.8,234z"
			/>
		<path class="st3" d="M458.2,200.4c1.5,0.5,3.4,1.9,3.4,3.6c-0.1,1.7-0.7,5-1,9.2c-0.2,3.6,0.8,15.7,0.8,19.6c0,5.1,1.3,12,1.2,14
			c-0.2,2-1.6,2.5-3.6,2.1c-1.9-0.5-4.1-1.5-4.2-3.3c0-2.1-0.5-8.3-0.5-14.4c0-6.1-1.5-17-1-25.3
			C453.9,200.7,455.6,199.7,458.2,200.4z"/>
		<path class="st3" d="M470.7,204.5c1.5,0.5,3.4,1.9,3.4,3.5c-0.1,1.6-0.7,4.6-1,8.7c-0.2,3.4,0.9,15.3,0.8,19.1
			c0,5.1,1.3,12.1,1.2,14.1c-0.2,2-1.6,2.6-3.6,2.1c-1.9-0.5-4.1-1.6-4.2-3.4c0-2.1-0.5-8.5-0.5-14.6s-1.5-16.7-1-24.5
			C466.4,204.5,468,203.7,470.7,204.5z"/>
		<path class="st3" d="M293,220.6c-0.2,2.5,0.2,3.7,2.5,3.8c2.3,0,4.4-1.3,5.6-1.9c1.1-0.6,3-3.1,4.9-3.1c1.9,0.1,2.9,1.2,2.8,2.2
			c-0.7,3.9-10.2,7-15.2,7.1c-6.8-0.3-7.8-3.6-7.6-7.1c1.4-13.1,13.3-23.9,15.8-24.2c1.7,0.1,2.9,1,2.7,3.7
			c-0.2,2.1-0.7,4.1-2.6,4.5C296.7,207.2,293.5,215.8,293,220.6z"/>
		<g>
			<path class="st4" d="M501.9,247.1c-0.5-0.6-0.8-1.2-1.4-1.6c0.9-1.4,1.4-2.6,1.5-4.6c0.1-0.8,0.2-2.2,0.3-3.8
				c0.3-3.3,0.7-7.9,1-12.2c0.2-4,0.7-7.6,1-9.8c0.1-1,0.2-1.6,0.2-2c0.4-5.3-3.3-9.5-8.6-9.9c-2.2-0.2-4.6,0.7-6.5,2.3
				s-3.1,3.8-3.2,6c-0.1,1-0.1,3.1,0,6.7c0,3.5,0,7.9-0.1,9.5c-0.1,2.1-0.3,5.9-0.4,9.1c-0.1,1.9-0.1,3.7-0.2,4.2
				c-0.1,1.5,0.1,2.5,0.9,3.8c-2.4,1.3-4,3.8-4.2,6.5c-0.2,2.3,0.4,4.4,1.8,6.1c1.8,2.1,4.8,3.3,8.9,3.5c5.3,0.3,11-2,11.5-6.8
				C504.6,252,503.6,249.2,501.9,247.1z"/>
			<path class="st3" d="M495.5,208c2.8,0.2,4.4,2.4,4.2,4.8c-0.1,1.1-0.9,6.1-1.2,11.9c-0.4,6.4-1.1,13.4-1.3,15.9
				c-0.1,1.8-1,3.3-3.1,3.3c-3-0.1-3.9-2.1-3.8-3.7c0.1-1.5,0.2-8.8,0.5-12.1c0.2-3.2,0-14.3,0.1-16.2
				C491.1,210.1,493.5,207.9,495.5,208z M493.6,247.5c3.2,0.2,5.9,4.3,5.5,6.1c-0.3,1.4-3,2.5-5.8,2.3c-3.8-0.2-5.9-1.5-5.6-3.9
				C487.9,250.1,491.4,247.3,493.6,247.5z"/>
		</g>
	</g>
</g>
</svg>
